<svg xmlns="http://www.w3.org/2000/svg" width="31.135" height="31.135" viewBox="0 0 31.135 31.135"><defs><style>.a{fill:none;stroke:#89a931;stroke-linecap:round;stroke-linejoin:round;stroke-width:3px;}</style></defs><path class="a" d="M32.635,17.786a13.1,13.1,0,0,1-1.407,5.94,13.286,13.286,0,0,1-11.879,7.346,13.1,13.1,0,0,1-5.94-1.407L4.5,32.635l2.97-8.909a13.1,13.1,0,0,1-1.407-5.94A13.286,13.286,0,0,1,13.409,5.907,13.1,13.1,0,0,1,19.349,4.5h.782A13.255,13.255,0,0,1,32.635,17Z" transform="translate(-3 -3)"/></svg>